<svg version="1.1" xmlns="http://www.w3.org/2000/svg" viewBox="0 0 300 300"  preserveAspectRatio="xMinYMin meet"><rect width="100%" height="100%" fill="white" cx="0" cy="0"/><path d="M2,2l8,0 0,8 -8,0 0,-8z M10,2l8,0 0,8 -8,0 0,-8z M18,2l8,0 0,8 -8,0 0,-8z M26,2l8,0 0,8 -8,0 0,-8z M34,2l8,0 0,8 -8,0 0,-8z M42,2l8,0 0,8 -8,0 0,-8z M50,2l8,0 0,8 -8,0 0,-8z M90,2l8,0 0,8 -8,0 0,-8z M106,2l8,0 0,8 -8,0 0,-8z M114,2l8,0 0,8 -8,0 0,-8z M122,2l8,0 0,8 -8,0 0,-8z M130,2l8,0 0,8 -8,0 0,-8z M138,2l8,0 0,8 -8,0 0,-8z M170,2l8,0 0,8 -8,0 0,-8z M178,2l8,0 0,8 -8,0 0,-8z M186,2l8,0 0,8 -8,0 0,-8z M242,2l8,0 0,8 -8,0 0,-8z M250,2l8,0 0,8 -8,0 0,-8z M258,2l8,0 0,8 -8,0 0,-8z M266,2l8,0 0,8 -8,0 0,-8z M274,2l8,0 0,8 -8,0 0,-8z M282,2l8,0 0,8 -8,0 0,-8z M290,2l8,0 0,8 -8,0 0,-8z M2,10l8,0 0,8 -8,0 0,-8z M50,10l8,0 0,8 -8,0 0,-8z M74,10l8,0 0,8 -8,0 0,-8z M90,10l8,0 0,8 -8,0 0,-8z M98,10l8,0 0,8 -8,0 0,-8z M170,10l8,0 0,8 -8,0 0,-8z M178,10l8,0 0,8 -8,0 0,-8z M202,10l8,0 0,8 -8,0 0,-8z M226,10l8,0 0,8 -8,0 0,-8z M242,10l8,0 0,8 -8,0 0,-8z M290,10l8,0 0,8 -8,0 0,-8z M2,18l8,0 0,8 -8,0 0,-8z M18,18l8,0 0,8 -8,0 0,-8z M26,18l8,0 0,8 -8,0 0,-8z M34,18l8,0 0,8 -8,0 0,-8z M50,18l8,0 0,8 -8,0 0,-8z M66,18l8,0 0,8 -8,0 0,-8z M82,18l8,0 0,8 -8,0 0,-8z M98,18l8,0 0,8 -8,0 0,-8z M106,18l8,0 0,8 -8,0 0,-8z M114,18l8,0 0,8 -8,0 0,-8z M122,18l8,0 0,8 -8,0 0,-8z M130,18l8,0 0,8 -8,0 0,-8z M138,18l8,0 0,8 -8,0 0,-8z M154,18l8,0 0,8 -8,0 0,-8z M162,18l8,0 0,8 -8,0 0,-8z M186,18l8,0 0,8 -8,0 0,-8z M194,18l8,0 0,8 -8,0 0,-8z M202,18l8,0 0,8 -8,0 0,-8z M210,18l8,0 0,8 -8,0 0,-8z M218,18l8,0 0,8 -8,0 0,-8z M242,18l8,0 0,8 -8,0 0,-8z M258,18l8,0 0,8 -8,0 0,-8z M266,18l8,0 0,8 -8,0 0,-8z M274,18l8,0 0,8 -8,0 0,-8z M290,18l8,0 0,8 -8,0 0,-8z M2,26l8,0 0,8 -8,0 0,-8z M18,26l8,0 0,8 -8,0 0,-8z M26,26l8,0 0,8 -8,0 0,-8z M34,26l8,0 0,8 -8,0 0,-8z M50,26l8,0 0,8 -8,0 0,-8z M66,26l8,0 0,8 -8,0 0,-8z M90,26l8,0 0,8 -8,0 0,-8z M114,26l8,0 0,8 -8,0 0,-8z M122,26l8,0 0,8 -8,0 0,-8z M146,26l8,0 0,8 -8,0 0,-8z M154,26l8,0 0,8 -8,0 0,-8z M162,26l8,0 0,8 -8,0 0,-8z M186,26l8,0 0,8 -8,0 0,-8z M194,26l8,0 0,8 -8,0 0,-8z M202,26l8,0 0,8 -8,0 0,-8z M226,26l8,0 0,8 -8,0 0,-8z M242,26l8,0 0,8 -8,0 0,-8z M258,26l8,0 0,8 -8,0 0,-8z M266,26l8,0 0,8 -8,0 0,-8z M274,26l8,0 0,8 -8,0 0,-8z M290,26l8,0 0,8 -8,0 0,-8z M2,34l8,0 0,8 -8,0 0,-8z M18,34l8,0 0,8 -8,0 0,-8z M26,34l8,0 0,8 -8,0 0,-8z M34,34l8,0 0,8 -8,0 0,-8z M50,34l8,0 0,8 -8,0 0,-8z M122,34l8,0 0,8 -8,0 0,-8z M178,34l8,0 0,8 -8,0 0,-8z M186,34l8,0 0,8 -8,0 0,-8z M194,34l8,0 0,8 -8,0 0,-8z M202,34l8,0 0,8 -8,0 0,-8z M242,34l8,0 0,8 -8,0 0,-8z M258,34l8,0 0,8 -8,0 0,-8z M266,34l8,0 0,8 -8,0 0,-8z M274,34l8,0 0,8 -8,0 0,-8z M290,34l8,0 0,8 -8,0 0,-8z M2,42l8,0 0,8 -8,0 0,-8z M50,42l8,0 0,8 -8,0 0,-8z M74,42l8,0 0,8 -8,0 0,-8z M82,42l8,0 0,8 -8,0 0,-8z M98,42l8,0 0,8 -8,0 0,-8z M114,42l8,0 0,8 -8,0 0,-8z M122,42l8,0 0,8 -8,0 0,-8z M138,42l8,0 0,8 -8,0 0,-8z M154,42l8,0 0,8 -8,0 0,-8z M170,42l8,0 0,8 -8,0 0,-8z M242,42l8,0 0,8 -8,0 0,-8z M290,42l8,0 0,8 -8,0 0,-8z M2,50l8,0 0,8 -8,0 0,-8z M10,50l8,0 0,8 -8,0 0,-8z M18,50l8,0 0,8 -8,0 0,-8z M26,50l8,0 0,8 -8,0 0,-8z M34,50l8,0 0,8 -8,0 0,-8z M42,50l8,0 0,8 -8,0 0,-8z M50,50l8,0 0,8 -8,0 0,-8z M66,50l8,0 0,8 -8,0 0,-8z M82,50l8,0 0,8 -8,0 0,-8z M98,50l8,0 0,8 -8,0 0,-8z M114,50l8,0 0,8 -8,0 0,-8z M130,50l8,0 0,8 -8,0 0,-8z M146,50l8,0 0,8 -8,0 0,-8z M162,50l8,0 0,8 -8,0 0,-8z M178,50l8,0 0,8 -8,0 0,-8z M194,50l8,0 0,8 -8,0 0,-8z M210,50l8,0 0,8 -8,0 0,-8z M226,50l8,0 0,8 -8,0 0,-8z M242,50l8,0 0,8 -8,0 0,-8z M250,50l8,0 0,8 -8,0 0,-8z M258,50l8,0 0,8 -8,0 0,-8z M266,50l8,0 0,8 -8,0 0,-8z M274,50l8,0 0,8 -8,0 0,-8z M282,50l8,0 0,8 -8,0 0,-8z M290,50l8,0 0,8 -8,0 0,-8z M82,58l8,0 0,8 -8,0 0,-8z M90,58l8,0 0,8 -8,0 0,-8z M130,58l8,0 0,8 -8,0 0,-8z M146,58l8,0 0,8 -8,0 0,-8z M162,58l8,0 0,8 -8,0 0,-8z M170,58l8,0 0,8 -8,0 0,-8z M186,58l8,0 0,8 -8,0 0,-8z M194,58l8,0 0,8 -8,0 0,-8z M202,58l8,0 0,8 -8,0 0,-8z M218,58l8,0 0,8 -8,0 0,-8z M226,58l8,0 0,8 -8,0 0,-8z M26,66l8,0 0,8 -8,0 0,-8z M34,66l8,0 0,8 -8,0 0,-8z M50,66l8,0 0,8 -8,0 0,-8z M58,66l8,0 0,8 -8,0 0,-8z M74,66l8,0 0,8 -8,0 0,-8z M82,66l8,0 0,8 -8,0 0,-8z M90,66l8,0 0,8 -8,0 0,-8z M106,66l8,0 0,8 -8,0 0,-8z M154,66l8,0 0,8 -8,0 0,-8z M170,66l8,0 0,8 -8,0 0,-8z M178,66l8,0 0,8 -8,0 0,-8z M194,66l8,0 0,8 -8,0 0,-8z M210,66l8,0 0,8 -8,0 0,-8z M226,66l8,0 0,8 -8,0 0,-8z M266,66l8,0 0,8 -8,0 0,-8z M274,66l8,0 0,8 -8,0 0,-8z M18,74l8,0 0,8 -8,0 0,-8z M26,74l8,0 0,8 -8,0 0,-8z M58,74l8,0 0,8 -8,0 0,-8z M82,74l8,0 0,8 -8,0 0,-8z M90,74l8,0 0,8 -8,0 0,-8z M106,74l8,0 0,8 -8,0 0,-8z M138,74l8,0 0,8 -8,0 0,-8z M146,74l8,0 0,8 -8,0 0,-8z M154,74l8,0 0,8 -8,0 0,-8z M170,74l8,0 0,8 -8,0 0,-8z M186,74l8,0 0,8 -8,0 0,-8z M194,74l8,0 0,8 -8,0 0,-8z M202,74l8,0 0,8 -8,0 0,-8z M218,74l8,0 0,8 -8,0 0,-8z M258,74l8,0 0,8 -8,0 0,-8z M266,74l8,0 0,8 -8,0 0,-8z M274,74l8,0 0,8 -8,0 0,-8z M18,82l8,0 0,8 -8,0 0,-8z M34,82l8,0 0,8 -8,0 0,-8z M42,82l8,0 0,8 -8,0 0,-8z M50,82l8,0 0,8 -8,0 0,-8z M58,82l8,0 0,8 -8,0 0,-8z M98,82l8,0 0,8 -8,0 0,-8z M130,82l8,0 0,8 -8,0 0,-8z M162,82l8,0 0,8 -8,0 0,-8z M170,82l8,0 0,8 -8,0 0,-8z M194,82l8,0 0,8 -8,0 0,-8z M202,82l8,0 0,8 -8,0 0,-8z M218,82l8,0 0,8 -8,0 0,-8z M226,82l8,0 0,8 -8,0 0,-8z M234,82l8,0 0,8 -8,0 0,-8z M242,82l8,0 0,8 -8,0 0,-8z M290,82l8,0 0,8 -8,0 0,-8z M2,90l8,0 0,8 -8,0 0,-8z M18,90l8,0 0,8 -8,0 0,-8z M58,90l8,0 0,8 -8,0 0,-8z M66,90l8,0 0,8 -8,0 0,-8z M90,90l8,0 0,8 -8,0 0,-8z M106,90l8,0 0,8 -8,0 0,-8z M122,90l8,0 0,8 -8,0 0,-8z M138,90l8,0 0,8 -8,0 0,-8z M162,90l8,0 0,8 -8,0 0,-8z M178,90l8,0 0,8 -8,0 0,-8z M186,90l8,0 0,8 -8,0 0,-8z M210,90l8,0 0,8 -8,0 0,-8z M234,90l8,0 0,8 -8,0 0,-8z M242,90l8,0 0,8 -8,0 0,-8z M274,90l8,0 0,8 -8,0 0,-8z M290,90l8,0 0,8 -8,0 0,-8z M18,98l8,0 0,8 -8,0 0,-8z M26,98l8,0 0,8 -8,0 0,-8z M42,98l8,0 0,8 -8,0 0,-8z M50,98l8,0 0,8 -8,0 0,-8z M58,98l8,0 0,8 -8,0 0,-8z M66,98l8,0 0,8 -8,0 0,-8z M82,98l8,0 0,8 -8,0 0,-8z M106,98l8,0 0,8 -8,0 0,-8z M114,98l8,0 0,8 -8,0 0,-8z M122,98l8,0 0,8 -8,0 0,-8z M130,98l8,0 0,8 -8,0 0,-8z M146,98l8,0 0,8 -8,0 0,-8z M154,98l8,0 0,8 -8,0 0,-8z M162,98l8,0 0,8 -8,0 0,-8z M178,98l8,0 0,8 -8,0 0,-8z M186,98l8,0 0,8 -8,0 0,-8z M194,98l8,0 0,8 -8,0 0,-8z M210,98l8,0 0,8 -8,0 0,-8z M218,98l8,0 0,8 -8,0 0,-8z M226,98l8,0 0,8 -8,0 0,-8z M242,98l8,0 0,8 -8,0 0,-8z M250,98l8,0 0,8 -8,0 0,-8z M266,98l8,0 0,8 -8,0 0,-8z M2,106l8,0 0,8 -8,0 0,-8z M10,106l8,0 0,8 -8,0 0,-8z M42,106l8,0 0,8 -8,0 0,-8z M74,106l8,0 0,8 -8,0 0,-8z M90,106l8,0 0,8 -8,0 0,-8z M98,106l8,0 0,8 -8,0 0,-8z M106,106l8,0 0,8 -8,0 0,-8z M122,106l8,0 0,8 -8,0 0,-8z M130,106l8,0 0,8 -8,0 0,-8z M138,106l8,0 0,8 -8,0 0,-8z M146,106l8,0 0,8 -8,0 0,-8z M154,106l8,0 0,8 -8,0 0,-8z M170,106l8,0 0,8 -8,0 0,-8z M186,106l8,0 0,8 -8,0 0,-8z M202,106l8,0 0,8 -8,0 0,-8z M218,106l8,0 0,8 -8,0 0,-8z M226,106l8,0 0,8 -8,0 0,-8z M234,106l8,0 0,8 -8,0 0,-8z M258,106l8,0 0,8 -8,0 0,-8z M274,106l8,0 0,8 -8,0 0,-8z M2,114l8,0 0,8 -8,0 0,-8z M10,114l8,0 0,8 -8,0 0,-8z M18,114l8,0 0,8 -8,0 0,-8z M26,114l8,0 0,8 -8,0 0,-8z M42,114l8,0 0,8 -8,0 0,-8z M50,114l8,0 0,8 -8,0 0,-8z M58,114l8,0 0,8 -8,0 0,-8z M74,114l8,0 0,8 -8,0 0,-8z M90,114l8,0 0,8 -8,0 0,-8z M114,114l8,0 0,8 -8,0 0,-8z M122,114l8,0 0,8 -8,0 0,-8z M138,114l8,0 0,8 -8,0 0,-8z M146,114l8,0 0,8 -8,0 0,-8z M162,114l8,0 0,8 -8,0 0,-8z M178,114l8,0 0,8 -8,0 0,-8z M202,114l8,0 0,8 -8,0 0,-8z M210,114l8,0 0,8 -8,0 0,-8z M218,114l8,0 0,8 -8,0 0,-8z M250,114l8,0 0,8 -8,0 0,-8z M258,114l8,0 0,8 -8,0 0,-8z M266,114l8,0 0,8 -8,0 0,-8z M274,114l8,0 0,8 -8,0 0,-8z M282,114l8,0 0,8 -8,0 0,-8z M290,114l8,0 0,8 -8,0 0,-8z M18,122l8,0 0,8 -8,0 0,-8z M42,122l8,0 0,8 -8,0 0,-8z M66,122l8,0 0,8 -8,0 0,-8z M82,122l8,0 0,8 -8,0 0,-8z M106,122l8,0 0,8 -8,0 0,-8z M114,122l8,0 0,8 -8,0 0,-8z M122,122l8,0 0,8 -8,0 0,-8z M130,122l8,0 0,8 -8,0 0,-8z M146,122l8,0 0,8 -8,0 0,-8z M154,122l8,0 0,8 -8,0 0,-8z M162,122l8,0 0,8 -8,0 0,-8z M194,122l8,0 0,8 -8,0 0,-8z M210,122l8,0 0,8 -8,0 0,-8z M234,122l8,0 0,8 -8,0 0,-8z M242,122l8,0 0,8 -8,0 0,-8z M250,122l8,0 0,8 -8,0 0,-8z M266,122l8,0 0,8 -8,0 0,-8z M274,122l8,0 0,8 -8,0 0,-8z M282,122l8,0 0,8 -8,0 0,-8z M290,122l8,0 0,8 -8,0 0,-8z M18,130l8,0 0,8 -8,0 0,-8z M34,130l8,0 0,8 -8,0 0,-8z M50,130l8,0 0,8 -8,0 0,-8z M66,130l8,0 0,8 -8,0 0,-8z M82,130l8,0 0,8 -8,0 0,-8z M90,130l8,0 0,8 -8,0 0,-8z M98,130l8,0 0,8 -8,0 0,-8z M146,130l8,0 0,8 -8,0 0,-8z M178,130l8,0 0,8 -8,0 0,-8z M194,130l8,0 0,8 -8,0 0,-8z M202,130l8,0 0,8 -8,0 0,-8z M242,130l8,0 0,8 -8,0 0,-8z M274,130l8,0 0,8 -8,0 0,-8z M282,130l8,0 0,8 -8,0 0,-8z M290,130l8,0 0,8 -8,0 0,-8z M10,138l8,0 0,8 -8,0 0,-8z M26,138l8,0 0,8 -8,0 0,-8z M34,138l8,0 0,8 -8,0 0,-8z M66,138l8,0 0,8 -8,0 0,-8z M106,138l8,0 0,8 -8,0 0,-8z M114,138l8,0 0,8 -8,0 0,-8z M122,138l8,0 0,8 -8,0 0,-8z M130,138l8,0 0,8 -8,0 0,-8z M138,138l8,0 0,8 -8,0 0,-8z M146,138l8,0 0,8 -8,0 0,-8z M154,138l8,0 0,8 -8,0 0,-8z M178,138l8,0 0,8 -8,0 0,-8z M186,138l8,0 0,8 -8,0 0,-8z M194,138l8,0 0,8 -8,0 0,-8z M202,138l8,0 0,8 -8,0 0,-8z M218,138l8,0 0,8 -8,0 0,-8z M250,138l8,0 0,8 -8,0 0,-8z M266,138l8,0 0,8 -8,0 0,-8z M282,138l8,0 0,8 -8,0 0,-8z M2,146l8,0 0,8 -8,0 0,-8z M10,146l8,0 0,8 -8,0 0,-8z M26,146l8,0 0,8 -8,0 0,-8z M42,146l8,0 0,8 -8,0 0,-8z M50,146l8,0 0,8 -8,0 0,-8z M74,146l8,0 0,8 -8,0 0,-8z M98,146l8,0 0,8 -8,0 0,-8z M106,146l8,0 0,8 -8,0 0,-8z M114,146l8,0 0,8 -8,0 0,-8z M138,146l8,0 0,8 -8,0 0,-8z M146,146l8,0 0,8 -8,0 0,-8z M162,146l8,0 0,8 -8,0 0,-8z M170,146l8,0 0,8 -8,0 0,-8z M178,146l8,0 0,8 -8,0 0,-8z M194,146l8,0 0,8 -8,0 0,-8z M202,146l8,0 0,8 -8,0 0,-8z M210,146l8,0 0,8 -8,0 0,-8z M218,146l8,0 0,8 -8,0 0,-8z M234,146l8,0 0,8 -8,0 0,-8z M250,146l8,0 0,8 -8,0 0,-8z M258,146l8,0 0,8 -8,0 0,-8z M266,146l8,0 0,8 -8,0 0,-8z M290,146l8,0 0,8 -8,0 0,-8z M2,154l8,0 0,8 -8,0 0,-8z M10,154l8,0 0,8 -8,0 0,-8z M58,154l8,0 0,8 -8,0 0,-8z M66,154l8,0 0,8 -8,0 0,-8z M82,154l8,0 0,8 -8,0 0,-8z M106,154l8,0 0,8 -8,0 0,-8z M122,154l8,0 0,8 -8,0 0,-8z M146,154l8,0 0,8 -8,0 0,-8z M162,154l8,0 0,8 -8,0 0,-8z M186,154l8,0 0,8 -8,0 0,-8z M202,154l8,0 0,8 -8,0 0,-8z M258,154l8,0 0,8 -8,0 0,-8z M266,154l8,0 0,8 -8,0 0,-8z M282,154l8,0 0,8 -8,0 0,-8z M2,162l8,0 0,8 -8,0 0,-8z M26,162l8,0 0,8 -8,0 0,-8z M34,162l8,0 0,8 -8,0 0,-8z M42,162l8,0 0,8 -8,0 0,-8z M50,162l8,0 0,8 -8,0 0,-8z M58,162l8,0 0,8 -8,0 0,-8z M66,162l8,0 0,8 -8,0 0,-8z M74,162l8,0 0,8 -8,0 0,-8z M82,162l8,0 0,8 -8,0 0,-8z M90,162l8,0 0,8 -8,0 0,-8z M106,162l8,0 0,8 -8,0 0,-8z M138,162l8,0 0,8 -8,0 0,-8z M154,162l8,0 0,8 -8,0 0,-8z M162,162l8,0 0,8 -8,0 0,-8z M186,162l8,0 0,8 -8,0 0,-8z M210,162l8,0 0,8 -8,0 0,-8z M226,162l8,0 0,8 -8,0 0,-8z M234,162l8,0 0,8 -8,0 0,-8z M242,162l8,0 0,8 -8,0 0,-8z M258,162l8,0 0,8 -8,0 0,-8z M10,170l8,0 0,8 -8,0 0,-8z M18,170l8,0 0,8 -8,0 0,-8z M26,170l8,0 0,8 -8,0 0,-8z M34,170l8,0 0,8 -8,0 0,-8z M42,170l8,0 0,8 -8,0 0,-8z M82,170l8,0 0,8 -8,0 0,-8z M98,170l8,0 0,8 -8,0 0,-8z M106,170l8,0 0,8 -8,0 0,-8z M114,170l8,0 0,8 -8,0 0,-8z M130,170l8,0 0,8 -8,0 0,-8z M146,170l8,0 0,8 -8,0 0,-8z M194,170l8,0 0,8 -8,0 0,-8z M202,170l8,0 0,8 -8,0 0,-8z M210,170l8,0 0,8 -8,0 0,-8z M218,170l8,0 0,8 -8,0 0,-8z M226,170l8,0 0,8 -8,0 0,-8z M250,170l8,0 0,8 -8,0 0,-8z M258,170l8,0 0,8 -8,0 0,-8z M266,170l8,0 0,8 -8,0 0,-8z M18,178l8,0 0,8 -8,0 0,-8z M34,178l8,0 0,8 -8,0 0,-8z M50,178l8,0 0,8 -8,0 0,-8z M58,178l8,0 0,8 -8,0 0,-8z M82,178l8,0 0,8 -8,0 0,-8z M106,178l8,0 0,8 -8,0 0,-8z M138,178l8,0 0,8 -8,0 0,-8z M146,178l8,0 0,8 -8,0 0,-8z M170,178l8,0 0,8 -8,0 0,-8z M202,178l8,0 0,8 -8,0 0,-8z M210,178l8,0 0,8 -8,0 0,-8z M218,178l8,0 0,8 -8,0 0,-8z M258,178l8,0 0,8 -8,0 0,-8z M290,178l8,0 0,8 -8,0 0,-8z M10,186l8,0 0,8 -8,0 0,-8z M18,186l8,0 0,8 -8,0 0,-8z M34,186l8,0 0,8 -8,0 0,-8z M42,186l8,0 0,8 -8,0 0,-8z M82,186l8,0 0,8 -8,0 0,-8z M106,186l8,0 0,8 -8,0 0,-8z M114,186l8,0 0,8 -8,0 0,-8z M122,186l8,0 0,8 -8,0 0,-8z M130,186l8,0 0,8 -8,0 0,-8z M146,186l8,0 0,8 -8,0 0,-8z M154,186l8,0 0,8 -8,0 0,-8z M170,186l8,0 0,8 -8,0 0,-8z M178,186l8,0 0,8 -8,0 0,-8z M218,186l8,0 0,8 -8,0 0,-8z M226,186l8,0 0,8 -8,0 0,-8z M250,186l8,0 0,8 -8,0 0,-8z M266,186l8,0 0,8 -8,0 0,-8z M274,186l8,0 0,8 -8,0 0,-8z M282,186l8,0 0,8 -8,0 0,-8z M18,194l8,0 0,8 -8,0 0,-8z M26,194l8,0 0,8 -8,0 0,-8z M34,194l8,0 0,8 -8,0 0,-8z M42,194l8,0 0,8 -8,0 0,-8z M50,194l8,0 0,8 -8,0 0,-8z M66,194l8,0 0,8 -8,0 0,-8z M90,194l8,0 0,8 -8,0 0,-8z M106,194l8,0 0,8 -8,0 0,-8z M122,194l8,0 0,8 -8,0 0,-8z M138,194l8,0 0,8 -8,0 0,-8z M162,194l8,0 0,8 -8,0 0,-8z M194,194l8,0 0,8 -8,0 0,-8z M242,194l8,0 0,8 -8,0 0,-8z M282,194l8,0 0,8 -8,0 0,-8z M290,194l8,0 0,8 -8,0 0,-8z M2,202l8,0 0,8 -8,0 0,-8z M26,202l8,0 0,8 -8,0 0,-8z M34,202l8,0 0,8 -8,0 0,-8z M66,202l8,0 0,8 -8,0 0,-8z M74,202l8,0 0,8 -8,0 0,-8z M90,202l8,0 0,8 -8,0 0,-8z M130,202l8,0 0,8 -8,0 0,-8z M146,202l8,0 0,8 -8,0 0,-8z M154,202l8,0 0,8 -8,0 0,-8z M162,202l8,0 0,8 -8,0 0,-8z M170,202l8,0 0,8 -8,0 0,-8z M202,202l8,0 0,8 -8,0 0,-8z M218,202l8,0 0,8 -8,0 0,-8z M226,202l8,0 0,8 -8,0 0,-8z M234,202l8,0 0,8 -8,0 0,-8z M258,202l8,0 0,8 -8,0 0,-8z M266,202l8,0 0,8 -8,0 0,-8z M274,202l8,0 0,8 -8,0 0,-8z M2,210l8,0 0,8 -8,0 0,-8z M10,210l8,0 0,8 -8,0 0,-8z M18,210l8,0 0,8 -8,0 0,-8z M34,210l8,0 0,8 -8,0 0,-8z M50,210l8,0 0,8 -8,0 0,-8z M58,210l8,0 0,8 -8,0 0,-8z M82,210l8,0 0,8 -8,0 0,-8z M90,210l8,0 0,8 -8,0 0,-8z M106,210l8,0 0,8 -8,0 0,-8z M114,210l8,0 0,8 -8,0 0,-8z M138,210l8,0 0,8 -8,0 0,-8z M146,210l8,0 0,8 -8,0 0,-8z M162,210l8,0 0,8 -8,0 0,-8z M186,210l8,0 0,8 -8,0 0,-8z M194,210l8,0 0,8 -8,0 0,-8z M218,210l8,0 0,8 -8,0 0,-8z M242,210l8,0 0,8 -8,0 0,-8z M250,210l8,0 0,8 -8,0 0,-8z M258,210l8,0 0,8 -8,0 0,-8z M266,210l8,0 0,8 -8,0 0,-8z M282,210l8,0 0,8 -8,0 0,-8z M290,210l8,0 0,8 -8,0 0,-8z M2,218l8,0 0,8 -8,0 0,-8z M18,218l8,0 0,8 -8,0 0,-8z M66,218l8,0 0,8 -8,0 0,-8z M74,218l8,0 0,8 -8,0 0,-8z M98,218l8,0 0,8 -8,0 0,-8z M146,218l8,0 0,8 -8,0 0,-8z M154,218l8,0 0,8 -8,0 0,-8z M162,218l8,0 0,8 -8,0 0,-8z M170,218l8,0 0,8 -8,0 0,-8z M178,218l8,0 0,8 -8,0 0,-8z M186,218l8,0 0,8 -8,0 0,-8z M226,218l8,0 0,8 -8,0 0,-8z M234,218l8,0 0,8 -8,0 0,-8z M250,218l8,0 0,8 -8,0 0,-8z M258,218l8,0 0,8 -8,0 0,-8z M266,218l8,0 0,8 -8,0 0,-8z M274,218l8,0 0,8 -8,0 0,-8z M282,218l8,0 0,8 -8,0 0,-8z M290,218l8,0 0,8 -8,0 0,-8z M2,226l8,0 0,8 -8,0 0,-8z M50,226l8,0 0,8 -8,0 0,-8z M74,226l8,0 0,8 -8,0 0,-8z M82,226l8,0 0,8 -8,0 0,-8z M90,226l8,0 0,8 -8,0 0,-8z M98,226l8,0 0,8 -8,0 0,-8z M106,226l8,0 0,8 -8,0 0,-8z M114,226l8,0 0,8 -8,0 0,-8z M130,226l8,0 0,8 -8,0 0,-8z M138,226l8,0 0,8 -8,0 0,-8z M146,226l8,0 0,8 -8,0 0,-8z M154,226l8,0 0,8 -8,0 0,-8z M162,226l8,0 0,8 -8,0 0,-8z M178,226l8,0 0,8 -8,0 0,-8z M202,226l8,0 0,8 -8,0 0,-8z M210,226l8,0 0,8 -8,0 0,-8z M218,226l8,0 0,8 -8,0 0,-8z M226,226l8,0 0,8 -8,0 0,-8z M234,226l8,0 0,8 -8,0 0,-8z M242,226l8,0 0,8 -8,0 0,-8z M250,226l8,0 0,8 -8,0 0,-8z M258,226l8,0 0,8 -8,0 0,-8z M266,226l8,0 0,8 -8,0 0,-8z M274,226l8,0 0,8 -8,0 0,-8z M282,226l8,0 0,8 -8,0 0,-8z M66,234l8,0 0,8 -8,0 0,-8z M74,234l8,0 0,8 -8,0 0,-8z M98,234l8,0 0,8 -8,0 0,-8z M122,234l8,0 0,8 -8,0 0,-8z M138,234l8,0 0,8 -8,0 0,-8z M202,234l8,0 0,8 -8,0 0,-8z M210,234l8,0 0,8 -8,0 0,-8z M226,234l8,0 0,8 -8,0 0,-8z M258,234l8,0 0,8 -8,0 0,-8z M266,234l8,0 0,8 -8,0 0,-8z M274,234l8,0 0,8 -8,0 0,-8z M282,234l8,0 0,8 -8,0 0,-8z M2,242l8,0 0,8 -8,0 0,-8z M10,242l8,0 0,8 -8,0 0,-8z M18,242l8,0 0,8 -8,0 0,-8z M26,242l8,0 0,8 -8,0 0,-8z M34,242l8,0 0,8 -8,0 0,-8z M42,242l8,0 0,8 -8,0 0,-8z M50,242l8,0 0,8 -8,0 0,-8z M66,242l8,0 0,8 -8,0 0,-8z M74,242l8,0 0,8 -8,0 0,-8z M90,242l8,0 0,8 -8,0 0,-8z M98,242l8,0 0,8 -8,0 0,-8z M106,242l8,0 0,8 -8,0 0,-8z M122,242l8,0 0,8 -8,0 0,-8z M162,242l8,0 0,8 -8,0 0,-8z M178,242l8,0 0,8 -8,0 0,-8z M186,242l8,0 0,8 -8,0 0,-8z M210,242l8,0 0,8 -8,0 0,-8z M226,242l8,0 0,8 -8,0 0,-8z M242,242l8,0 0,8 -8,0 0,-8z M258,242l8,0 0,8 -8,0 0,-8z M266,242l8,0 0,8 -8,0 0,-8z M274,242l8,0 0,8 -8,0 0,-8z M290,242l8,0 0,8 -8,0 0,-8z M2,250l8,0 0,8 -8,0 0,-8z M50,250l8,0 0,8 -8,0 0,-8z M74,250l8,0 0,8 -8,0 0,-8z M98,250l8,0 0,8 -8,0 0,-8z M114,250l8,0 0,8 -8,0 0,-8z M130,250l8,0 0,8 -8,0 0,-8z M138,250l8,0 0,8 -8,0 0,-8z M154,250l8,0 0,8 -8,0 0,-8z M186,250l8,0 0,8 -8,0 0,-8z M202,250l8,0 0,8 -8,0 0,-8z M210,250l8,0 0,8 -8,0 0,-8z M218,250l8,0 0,8 -8,0 0,-8z M226,250l8,0 0,8 -8,0 0,-8z M258,250l8,0 0,8 -8,0 0,-8z M266,250l8,0 0,8 -8,0 0,-8z M290,250l8,0 0,8 -8,0 0,-8z M2,258l8,0 0,8 -8,0 0,-8z M18,258l8,0 0,8 -8,0 0,-8z M26,258l8,0 0,8 -8,0 0,-8z M34,258l8,0 0,8 -8,0 0,-8z M50,258l8,0 0,8 -8,0 0,-8z M66,258l8,0 0,8 -8,0 0,-8z M74,258l8,0 0,8 -8,0 0,-8z M90,258l8,0 0,8 -8,0 0,-8z M98,258l8,0 0,8 -8,0 0,-8z M106,258l8,0 0,8 -8,0 0,-8z M130,258l8,0 0,8 -8,0 0,-8z M138,258l8,0 0,8 -8,0 0,-8z M146,258l8,0 0,8 -8,0 0,-8z M154,258l8,0 0,8 -8,0 0,-8z M162,258l8,0 0,8 -8,0 0,-8z M178,258l8,0 0,8 -8,0 0,-8z M186,258l8,0 0,8 -8,0 0,-8z M194,258l8,0 0,8 -8,0 0,-8z M210,258l8,0 0,8 -8,0 0,-8z M218,258l8,0 0,8 -8,0 0,-8z M226,258l8,0 0,8 -8,0 0,-8z M234,258l8,0 0,8 -8,0 0,-8z M242,258l8,0 0,8 -8,0 0,-8z M250,258l8,0 0,8 -8,0 0,-8z M258,258l8,0 0,8 -8,0 0,-8z M290,258l8,0 0,8 -8,0 0,-8z M2,266l8,0 0,8 -8,0 0,-8z M18,266l8,0 0,8 -8,0 0,-8z M26,266l8,0 0,8 -8,0 0,-8z M34,266l8,0 0,8 -8,0 0,-8z M50,266l8,0 0,8 -8,0 0,-8z M66,266l8,0 0,8 -8,0 0,-8z M82,266l8,0 0,8 -8,0 0,-8z M90,266l8,0 0,8 -8,0 0,-8z M114,266l8,0 0,8 -8,0 0,-8z M122,266l8,0 0,8 -8,0 0,-8z M130,266l8,0 0,8 -8,0 0,-8z M162,266l8,0 0,8 -8,0 0,-8z M170,266l8,0 0,8 -8,0 0,-8z M194,266l8,0 0,8 -8,0 0,-8z M210,266l8,0 0,8 -8,0 0,-8z M218,266l8,0 0,8 -8,0 0,-8z M226,266l8,0 0,8 -8,0 0,-8z M242,266l8,0 0,8 -8,0 0,-8z M274,266l8,0 0,8 -8,0 0,-8z M2,274l8,0 0,8 -8,0 0,-8z M18,274l8,0 0,8 -8,0 0,-8z M26,274l8,0 0,8 -8,0 0,-8z M34,274l8,0 0,8 -8,0 0,-8z M50,274l8,0 0,8 -8,0 0,-8z M90,274l8,0 0,8 -8,0 0,-8z M98,274l8,0 0,8 -8,0 0,-8z M106,274l8,0 0,8 -8,0 0,-8z M138,274l8,0 0,8 -8,0 0,-8z M146,274l8,0 0,8 -8,0 0,-8z M162,274l8,0 0,8 -8,0 0,-8z M170,274l8,0 0,8 -8,0 0,-8z M186,274l8,0 0,8 -8,0 0,-8z M194,274l8,0 0,8 -8,0 0,-8z M218,274l8,0 0,8 -8,0 0,-8z M226,274l8,0 0,8 -8,0 0,-8z M258,274l8,0 0,8 -8,0 0,-8z M274,274l8,0 0,8 -8,0 0,-8z M282,274l8,0 0,8 -8,0 0,-8z M290,274l8,0 0,8 -8,0 0,-8z M2,282l8,0 0,8 -8,0 0,-8z M50,282l8,0 0,8 -8,0 0,-8z M74,282l8,0 0,8 -8,0 0,-8z M90,282l8,0 0,8 -8,0 0,-8z M98,282l8,0 0,8 -8,0 0,-8z M122,282l8,0 0,8 -8,0 0,-8z M130,282l8,0 0,8 -8,0 0,-8z M138,282l8,0 0,8 -8,0 0,-8z M154,282l8,0 0,8 -8,0 0,-8z M170,282l8,0 0,8 -8,0 0,-8z M178,282l8,0 0,8 -8,0 0,-8z M194,282l8,0 0,8 -8,0 0,-8z M242,282l8,0 0,8 -8,0 0,-8z M250,282l8,0 0,8 -8,0 0,-8z M266,282l8,0 0,8 -8,0 0,-8z M274,282l8,0 0,8 -8,0 0,-8z M282,282l8,0 0,8 -8,0 0,-8z M290,282l8,0 0,8 -8,0 0,-8z M2,290l8,0 0,8 -8,0 0,-8z M10,290l8,0 0,8 -8,0 0,-8z M18,290l8,0 0,8 -8,0 0,-8z M26,290l8,0 0,8 -8,0 0,-8z M34,290l8,0 0,8 -8,0 0,-8z M42,290l8,0 0,8 -8,0 0,-8z M50,290l8,0 0,8 -8,0 0,-8z M82,290l8,0 0,8 -8,0 0,-8z M90,290l8,0 0,8 -8,0 0,-8z M106,290l8,0 0,8 -8,0 0,-8z M130,290l8,0 0,8 -8,0 0,-8z M138,290l8,0 0,8 -8,0 0,-8z M178,290l8,0 0,8 -8,0 0,-8z M194,290l8,0 0,8 -8,0 0,-8z M226,290l8,0 0,8 -8,0 0,-8z M234,290l8,0 0,8 -8,0 0,-8z M242,290l8,0 0,8 -8,0 0,-8z M250,290l8,0 0,8 -8,0 0,-8z M290,290l8,0 0,8 -8,0 0,-8z " stroke="transparent" fill="black"/></svg>