<svg version="1.1" xmlns="http://www.w3.org/2000/svg" viewBox="0 0 300 300"  preserveAspectRatio="xMinYMin meet"><rect width="100%" height="100%" fill="white" cx="0" cy="0"/><path d="M2,2l8,0 0,8 -8,0 0,-8z M10,2l8,0 0,8 -8,0 0,-8z M18,2l8,0 0,8 -8,0 0,-8z M26,2l8,0 0,8 -8,0 0,-8z M34,2l8,0 0,8 -8,0 0,-8z M42,2l8,0 0,8 -8,0 0,-8z M50,2l8,0 0,8 -8,0 0,-8z M82,2l8,0 0,8 -8,0 0,-8z M90,2l8,0 0,8 -8,0 0,-8z M98,2l8,0 0,8 -8,0 0,-8z M122,2l8,0 0,8 -8,0 0,-8z M146,2l8,0 0,8 -8,0 0,-8z M154,2l8,0 0,8 -8,0 0,-8z M162,2l8,0 0,8 -8,0 0,-8z M170,2l8,0 0,8 -8,0 0,-8z M202,2l8,0 0,8 -8,0 0,-8z M210,2l8,0 0,8 -8,0 0,-8z M226,2l8,0 0,8 -8,0 0,-8z M242,2l8,0 0,8 -8,0 0,-8z M250,2l8,0 0,8 -8,0 0,-8z M258,2l8,0 0,8 -8,0 0,-8z M266,2l8,0 0,8 -8,0 0,-8z M274,2l8,0 0,8 -8,0 0,-8z M282,2l8,0 0,8 -8,0 0,-8z M290,2l8,0 0,8 -8,0 0,-8z M2,10l8,0 0,8 -8,0 0,-8z M50,10l8,0 0,8 -8,0 0,-8z M74,10l8,0 0,8 -8,0 0,-8z M90,10l8,0 0,8 -8,0 0,-8z M106,10l8,0 0,8 -8,0 0,-8z M138,10l8,0 0,8 -8,0 0,-8z M154,10l8,0 0,8 -8,0 0,-8z M170,10l8,0 0,8 -8,0 0,-8z M178,10l8,0 0,8 -8,0 0,-8z M186,10l8,0 0,8 -8,0 0,-8z M194,10l8,0 0,8 -8,0 0,-8z M226,10l8,0 0,8 -8,0 0,-8z M242,10l8,0 0,8 -8,0 0,-8z M290,10l8,0 0,8 -8,0 0,-8z M2,18l8,0 0,8 -8,0 0,-8z M18,18l8,0 0,8 -8,0 0,-8z M26,18l8,0 0,8 -8,0 0,-8z M34,18l8,0 0,8 -8,0 0,-8z M50,18l8,0 0,8 -8,0 0,-8z M74,18l8,0 0,8 -8,0 0,-8z M90,18l8,0 0,8 -8,0 0,-8z M98,18l8,0 0,8 -8,0 0,-8z M106,18l8,0 0,8 -8,0 0,-8z M114,18l8,0 0,8 -8,0 0,-8z M130,18l8,0 0,8 -8,0 0,-8z M162,18l8,0 0,8 -8,0 0,-8z M170,18l8,0 0,8 -8,0 0,-8z M186,18l8,0 0,8 -8,0 0,-8z M202,18l8,0 0,8 -8,0 0,-8z M210,18l8,0 0,8 -8,0 0,-8z M242,18l8,0 0,8 -8,0 0,-8z M258,18l8,0 0,8 -8,0 0,-8z M266,18l8,0 0,8 -8,0 0,-8z M274,18l8,0 0,8 -8,0 0,-8z M290,18l8,0 0,8 -8,0 0,-8z M2,26l8,0 0,8 -8,0 0,-8z M18,26l8,0 0,8 -8,0 0,-8z M26,26l8,0 0,8 -8,0 0,-8z M34,26l8,0 0,8 -8,0 0,-8z M50,26l8,0 0,8 -8,0 0,-8z M74,26l8,0 0,8 -8,0 0,-8z M138,26l8,0 0,8 -8,0 0,-8z M154,26l8,0 0,8 -8,0 0,-8z M170,26l8,0 0,8 -8,0 0,-8z M178,26l8,0 0,8 -8,0 0,-8z M186,26l8,0 0,8 -8,0 0,-8z M194,26l8,0 0,8 -8,0 0,-8z M202,26l8,0 0,8 -8,0 0,-8z M210,26l8,0 0,8 -8,0 0,-8z M218,26l8,0 0,8 -8,0 0,-8z M242,26l8,0 0,8 -8,0 0,-8z M258,26l8,0 0,8 -8,0 0,-8z M266,26l8,0 0,8 -8,0 0,-8z M274,26l8,0 0,8 -8,0 0,-8z M290,26l8,0 0,8 -8,0 0,-8z M2,34l8,0 0,8 -8,0 0,-8z M18,34l8,0 0,8 -8,0 0,-8z M26,34l8,0 0,8 -8,0 0,-8z M34,34l8,0 0,8 -8,0 0,-8z M50,34l8,0 0,8 -8,0 0,-8z M66,34l8,0 0,8 -8,0 0,-8z M74,34l8,0 0,8 -8,0 0,-8z M98,34l8,0 0,8 -8,0 0,-8z M130,34l8,0 0,8 -8,0 0,-8z M178,34l8,0 0,8 -8,0 0,-8z M218,34l8,0 0,8 -8,0 0,-8z M242,34l8,0 0,8 -8,0 0,-8z M258,34l8,0 0,8 -8,0 0,-8z M266,34l8,0 0,8 -8,0 0,-8z M274,34l8,0 0,8 -8,0 0,-8z M290,34l8,0 0,8 -8,0 0,-8z M2,42l8,0 0,8 -8,0 0,-8z M50,42l8,0 0,8 -8,0 0,-8z M74,42l8,0 0,8 -8,0 0,-8z M82,42l8,0 0,8 -8,0 0,-8z M90,42l8,0 0,8 -8,0 0,-8z M122,42l8,0 0,8 -8,0 0,-8z M130,42l8,0 0,8 -8,0 0,-8z M146,42l8,0 0,8 -8,0 0,-8z M170,42l8,0 0,8 -8,0 0,-8z M186,42l8,0 0,8 -8,0 0,-8z M202,42l8,0 0,8 -8,0 0,-8z M210,42l8,0 0,8 -8,0 0,-8z M242,42l8,0 0,8 -8,0 0,-8z M290,42l8,0 0,8 -8,0 0,-8z M2,50l8,0 0,8 -8,0 0,-8z M10,50l8,0 0,8 -8,0 0,-8z M18,50l8,0 0,8 -8,0 0,-8z M26,50l8,0 0,8 -8,0 0,-8z M34,50l8,0 0,8 -8,0 0,-8z M42,50l8,0 0,8 -8,0 0,-8z M50,50l8,0 0,8 -8,0 0,-8z M66,50l8,0 0,8 -8,0 0,-8z M82,50l8,0 0,8 -8,0 0,-8z M98,50l8,0 0,8 -8,0 0,-8z M114,50l8,0 0,8 -8,0 0,-8z M130,50l8,0 0,8 -8,0 0,-8z M146,50l8,0 0,8 -8,0 0,-8z M162,50l8,0 0,8 -8,0 0,-8z M178,50l8,0 0,8 -8,0 0,-8z M194,50l8,0 0,8 -8,0 0,-8z M210,50l8,0 0,8 -8,0 0,-8z M226,50l8,0 0,8 -8,0 0,-8z M242,50l8,0 0,8 -8,0 0,-8z M250,50l8,0 0,8 -8,0 0,-8z M258,50l8,0 0,8 -8,0 0,-8z M266,50l8,0 0,8 -8,0 0,-8z M274,50l8,0 0,8 -8,0 0,-8z M282,50l8,0 0,8 -8,0 0,-8z M290,50l8,0 0,8 -8,0 0,-8z M66,58l8,0 0,8 -8,0 0,-8z M82,58l8,0 0,8 -8,0 0,-8z M98,58l8,0 0,8 -8,0 0,-8z M122,58l8,0 0,8 -8,0 0,-8z M138,58l8,0 0,8 -8,0 0,-8z M154,58l8,0 0,8 -8,0 0,-8z M162,58l8,0 0,8 -8,0 0,-8z M194,58l8,0 0,8 -8,0 0,-8z M218,58l8,0 0,8 -8,0 0,-8z M226,58l8,0 0,8 -8,0 0,-8z M18,66l8,0 0,8 -8,0 0,-8z M26,66l8,0 0,8 -8,0 0,-8z M50,66l8,0 0,8 -8,0 0,-8z M58,66l8,0 0,8 -8,0 0,-8z M66,66l8,0 0,8 -8,0 0,-8z M82,66l8,0 0,8 -8,0 0,-8z M90,66l8,0 0,8 -8,0 0,-8z M98,66l8,0 0,8 -8,0 0,-8z M146,66l8,0 0,8 -8,0 0,-8z M154,66l8,0 0,8 -8,0 0,-8z M170,66l8,0 0,8 -8,0 0,-8z M186,66l8,0 0,8 -8,0 0,-8z M210,66l8,0 0,8 -8,0 0,-8z M218,66l8,0 0,8 -8,0 0,-8z M234,66l8,0 0,8 -8,0 0,-8z M242,66l8,0 0,8 -8,0 0,-8z M258,66l8,0 0,8 -8,0 0,-8z M34,74l8,0 0,8 -8,0 0,-8z M58,74l8,0 0,8 -8,0 0,-8z M66,74l8,0 0,8 -8,0 0,-8z M74,74l8,0 0,8 -8,0 0,-8z M90,74l8,0 0,8 -8,0 0,-8z M106,74l8,0 0,8 -8,0 0,-8z M114,74l8,0 0,8 -8,0 0,-8z M130,74l8,0 0,8 -8,0 0,-8z M138,74l8,0 0,8 -8,0 0,-8z M146,74l8,0 0,8 -8,0 0,-8z M154,74l8,0 0,8 -8,0 0,-8z M162,74l8,0 0,8 -8,0 0,-8z M170,74l8,0 0,8 -8,0 0,-8z M178,74l8,0 0,8 -8,0 0,-8z M186,74l8,0 0,8 -8,0 0,-8z M202,74l8,0 0,8 -8,0 0,-8z M226,74l8,0 0,8 -8,0 0,-8z M18,82l8,0 0,8 -8,0 0,-8z M26,82l8,0 0,8 -8,0 0,-8z M34,82l8,0 0,8 -8,0 0,-8z M42,82l8,0 0,8 -8,0 0,-8z M50,82l8,0 0,8 -8,0 0,-8z M58,82l8,0 0,8 -8,0 0,-8z M74,82l8,0 0,8 -8,0 0,-8z M114,82l8,0 0,8 -8,0 0,-8z M130,82l8,0 0,8 -8,0 0,-8z M146,82l8,0 0,8 -8,0 0,-8z M162,82l8,0 0,8 -8,0 0,-8z M170,82l8,0 0,8 -8,0 0,-8z M186,82l8,0 0,8 -8,0 0,-8z M202,82l8,0 0,8 -8,0 0,-8z M226,82l8,0 0,8 -8,0 0,-8z M234,82l8,0 0,8 -8,0 0,-8z M266,82l8,0 0,8 -8,0 0,-8z M26,90l8,0 0,8 -8,0 0,-8z M42,90l8,0 0,8 -8,0 0,-8z M66,90l8,0 0,8 -8,0 0,-8z M98,90l8,0 0,8 -8,0 0,-8z M106,90l8,0 0,8 -8,0 0,-8z M114,90l8,0 0,8 -8,0 0,-8z M130,90l8,0 0,8 -8,0 0,-8z M146,90l8,0 0,8 -8,0 0,-8z M154,90l8,0 0,8 -8,0 0,-8z M162,90l8,0 0,8 -8,0 0,-8z M194,90l8,0 0,8 -8,0 0,-8z M202,90l8,0 0,8 -8,0 0,-8z M210,90l8,0 0,8 -8,0 0,-8z M218,90l8,0 0,8 -8,0 0,-8z M250,90l8,0 0,8 -8,0 0,-8z M274,90l8,0 0,8 -8,0 0,-8z M282,90l8,0 0,8 -8,0 0,-8z M2,98l8,0 0,8 -8,0 0,-8z M26,98l8,0 0,8 -8,0 0,-8z M34,98l8,0 0,8 -8,0 0,-8z M50,98l8,0 0,8 -8,0 0,-8z M90,98l8,0 0,8 -8,0 0,-8z M98,98l8,0 0,8 -8,0 0,-8z M106,98l8,0 0,8 -8,0 0,-8z M122,98l8,0 0,8 -8,0 0,-8z M138,98l8,0 0,8 -8,0 0,-8z M146,98l8,0 0,8 -8,0 0,-8z M162,98l8,0 0,8 -8,0 0,-8z M170,98l8,0 0,8 -8,0 0,-8z M186,98l8,0 0,8 -8,0 0,-8z M194,98l8,0 0,8 -8,0 0,-8z M202,98l8,0 0,8 -8,0 0,-8z M234,98l8,0 0,8 -8,0 0,-8z M242,98l8,0 0,8 -8,0 0,-8z M258,98l8,0 0,8 -8,0 0,-8z M266,98l8,0 0,8 -8,0 0,-8z M274,98l8,0 0,8 -8,0 0,-8z M282,98l8,0 0,8 -8,0 0,-8z M34,106l8,0 0,8 -8,0 0,-8z M90,106l8,0 0,8 -8,0 0,-8z M98,106l8,0 0,8 -8,0 0,-8z M122,106l8,0 0,8 -8,0 0,-8z M130,106l8,0 0,8 -8,0 0,-8z M138,106l8,0 0,8 -8,0 0,-8z M154,106l8,0 0,8 -8,0 0,-8z M170,106l8,0 0,8 -8,0 0,-8z M178,106l8,0 0,8 -8,0 0,-8z M194,106l8,0 0,8 -8,0 0,-8z M218,106l8,0 0,8 -8,0 0,-8z M226,106l8,0 0,8 -8,0 0,-8z M242,106l8,0 0,8 -8,0 0,-8z M250,106l8,0 0,8 -8,0 0,-8z M258,106l8,0 0,8 -8,0 0,-8z M274,106l8,0 0,8 -8,0 0,-8z M282,106l8,0 0,8 -8,0 0,-8z M290,106l8,0 0,8 -8,0 0,-8z M10,114l8,0 0,8 -8,0 0,-8z M18,114l8,0 0,8 -8,0 0,-8z M34,114l8,0 0,8 -8,0 0,-8z M50,114l8,0 0,8 -8,0 0,-8z M74,114l8,0 0,8 -8,0 0,-8z M82,114l8,0 0,8 -8,0 0,-8z M98,114l8,0 0,8 -8,0 0,-8z M114,114l8,0 0,8 -8,0 0,-8z M146,114l8,0 0,8 -8,0 0,-8z M162,114l8,0 0,8 -8,0 0,-8z M170,114l8,0 0,8 -8,0 0,-8z M178,114l8,0 0,8 -8,0 0,-8z M194,114l8,0 0,8 -8,0 0,-8z M202,114l8,0 0,8 -8,0 0,-8z M210,114l8,0 0,8 -8,0 0,-8z M242,114l8,0 0,8 -8,0 0,-8z M250,114l8,0 0,8 -8,0 0,-8z M258,114l8,0 0,8 -8,0 0,-8z M274,114l8,0 0,8 -8,0 0,-8z M282,114l8,0 0,8 -8,0 0,-8z M26,122l8,0 0,8 -8,0 0,-8z M42,122l8,0 0,8 -8,0 0,-8z M58,122l8,0 0,8 -8,0 0,-8z M74,122l8,0 0,8 -8,0 0,-8z M82,122l8,0 0,8 -8,0 0,-8z M90,122l8,0 0,8 -8,0 0,-8z M98,122l8,0 0,8 -8,0 0,-8z M106,122l8,0 0,8 -8,0 0,-8z M138,122l8,0 0,8 -8,0 0,-8z M146,122l8,0 0,8 -8,0 0,-8z M154,122l8,0 0,8 -8,0 0,-8z M162,122l8,0 0,8 -8,0 0,-8z M170,122l8,0 0,8 -8,0 0,-8z M178,122l8,0 0,8 -8,0 0,-8z M194,122l8,0 0,8 -8,0 0,-8z M218,122l8,0 0,8 -8,0 0,-8z M226,122l8,0 0,8 -8,0 0,-8z M234,122l8,0 0,8 -8,0 0,-8z M242,122l8,0 0,8 -8,0 0,-8z M250,122l8,0 0,8 -8,0 0,-8z M258,122l8,0 0,8 -8,0 0,-8z M282,122l8,0 0,8 -8,0 0,-8z M290,122l8,0 0,8 -8,0 0,-8z M2,130l8,0 0,8 -8,0 0,-8z M18,130l8,0 0,8 -8,0 0,-8z M26,130l8,0 0,8 -8,0 0,-8z M50,130l8,0 0,8 -8,0 0,-8z M82,130l8,0 0,8 -8,0 0,-8z M122,130l8,0 0,8 -8,0 0,-8z M138,130l8,0 0,8 -8,0 0,-8z M146,130l8,0 0,8 -8,0 0,-8z M154,130l8,0 0,8 -8,0 0,-8z M162,130l8,0 0,8 -8,0 0,-8z M170,130l8,0 0,8 -8,0 0,-8z M178,130l8,0 0,8 -8,0 0,-8z M202,130l8,0 0,8 -8,0 0,-8z M218,130l8,0 0,8 -8,0 0,-8z M266,130l8,0 0,8 -8,0 0,-8z M274,130l8,0 0,8 -8,0 0,-8z M282,130l8,0 0,8 -8,0 0,-8z M2,138l8,0 0,8 -8,0 0,-8z M26,138l8,0 0,8 -8,0 0,-8z M66,138l8,0 0,8 -8,0 0,-8z M90,138l8,0 0,8 -8,0 0,-8z M98,138l8,0 0,8 -8,0 0,-8z M114,138l8,0 0,8 -8,0 0,-8z M122,138l8,0 0,8 -8,0 0,-8z M130,138l8,0 0,8 -8,0 0,-8z M154,138l8,0 0,8 -8,0 0,-8z M178,138l8,0 0,8 -8,0 0,-8z M218,138l8,0 0,8 -8,0 0,-8z M234,138l8,0 0,8 -8,0 0,-8z M242,138l8,0 0,8 -8,0 0,-8z M266,138l8,0 0,8 -8,0 0,-8z M290,138l8,0 0,8 -8,0 0,-8z M2,146l8,0 0,8 -8,0 0,-8z M18,146l8,0 0,8 -8,0 0,-8z M26,146l8,0 0,8 -8,0 0,-8z M34,146l8,0 0,8 -8,0 0,-8z M50,146l8,0 0,8 -8,0 0,-8z M58,146l8,0 0,8 -8,0 0,-8z M66,146l8,0 0,8 -8,0 0,-8z M90,146l8,0 0,8 -8,0 0,-8z M130,146l8,0 0,8 -8,0 0,-8z M138,146l8,0 0,8 -8,0 0,-8z M146,146l8,0 0,8 -8,0 0,-8z M170,146l8,0 0,8 -8,0 0,-8z M186,146l8,0 0,8 -8,0 0,-8z M194,146l8,0 0,8 -8,0 0,-8z M218,146l8,0 0,8 -8,0 0,-8z M226,146l8,0 0,8 -8,0 0,-8z M266,146l8,0 0,8 -8,0 0,-8z M274,146l8,0 0,8 -8,0 0,-8z M282,146l8,0 0,8 -8,0 0,-8z M290,146l8,0 0,8 -8,0 0,-8z M34,154l8,0 0,8 -8,0 0,-8z M42,154l8,0 0,8 -8,0 0,-8z M66,154l8,0 0,8 -8,0 0,-8z M74,154l8,0 0,8 -8,0 0,-8z M90,154l8,0 0,8 -8,0 0,-8z M122,154l8,0 0,8 -8,0 0,-8z M154,154l8,0 0,8 -8,0 0,-8z M194,154l8,0 0,8 -8,0 0,-8z M234,154l8,0 0,8 -8,0 0,-8z M242,154l8,0 0,8 -8,0 0,-8z M250,154l8,0 0,8 -8,0 0,-8z M258,154l8,0 0,8 -8,0 0,-8z M266,154l8,0 0,8 -8,0 0,-8z M282,154l8,0 0,8 -8,0 0,-8z M290,154l8,0 0,8 -8,0 0,-8z M34,162l8,0 0,8 -8,0 0,-8z M50,162l8,0 0,8 -8,0 0,-8z M66,162l8,0 0,8 -8,0 0,-8z M74,162l8,0 0,8 -8,0 0,-8z M82,162l8,0 0,8 -8,0 0,-8z M90,162l8,0 0,8 -8,0 0,-8z M98,162l8,0 0,8 -8,0 0,-8z M106,162l8,0 0,8 -8,0 0,-8z M122,162l8,0 0,8 -8,0 0,-8z M154,162l8,0 0,8 -8,0 0,-8z M162,162l8,0 0,8 -8,0 0,-8z M170,162l8,0 0,8 -8,0 0,-8z M186,162l8,0 0,8 -8,0 0,-8z M210,162l8,0 0,8 -8,0 0,-8z M218,162l8,0 0,8 -8,0 0,-8z M226,162l8,0 0,8 -8,0 0,-8z M234,162l8,0 0,8 -8,0 0,-8z M258,162l8,0 0,8 -8,0 0,-8z M266,162l8,0 0,8 -8,0 0,-8z M290,162l8,0 0,8 -8,0 0,-8z M2,170l8,0 0,8 -8,0 0,-8z M10,170l8,0 0,8 -8,0 0,-8z M18,170l8,0 0,8 -8,0 0,-8z M42,170l8,0 0,8 -8,0 0,-8z M66,170l8,0 0,8 -8,0 0,-8z M74,170l8,0 0,8 -8,0 0,-8z M82,170l8,0 0,8 -8,0 0,-8z M98,170l8,0 0,8 -8,0 0,-8z M106,170l8,0 0,8 -8,0 0,-8z M130,170l8,0 0,8 -8,0 0,-8z M162,170l8,0 0,8 -8,0 0,-8z M170,170l8,0 0,8 -8,0 0,-8z M178,170l8,0 0,8 -8,0 0,-8z M250,170l8,0 0,8 -8,0 0,-8z M274,170l8,0 0,8 -8,0 0,-8z M10,178l8,0 0,8 -8,0 0,-8z M18,178l8,0 0,8 -8,0 0,-8z M26,178l8,0 0,8 -8,0 0,-8z M34,178l8,0 0,8 -8,0 0,-8z M50,178l8,0 0,8 -8,0 0,-8z M58,178l8,0 0,8 -8,0 0,-8z M74,178l8,0 0,8 -8,0 0,-8z M82,178l8,0 0,8 -8,0 0,-8z M98,178l8,0 0,8 -8,0 0,-8z M130,178l8,0 0,8 -8,0 0,-8z M138,178l8,0 0,8 -8,0 0,-8z M170,178l8,0 0,8 -8,0 0,-8z M242,178l8,0 0,8 -8,0 0,-8z M258,178l8,0 0,8 -8,0 0,-8z M266,178l8,0 0,8 -8,0 0,-8z M2,186l8,0 0,8 -8,0 0,-8z M18,186l8,0 0,8 -8,0 0,-8z M34,186l8,0 0,8 -8,0 0,-8z M58,186l8,0 0,8 -8,0 0,-8z M82,186l8,0 0,8 -8,0 0,-8z M90,186l8,0 0,8 -8,0 0,-8z M98,186l8,0 0,8 -8,0 0,-8z M106,186l8,0 0,8 -8,0 0,-8z M130,186l8,0 0,8 -8,0 0,-8z M138,186l8,0 0,8 -8,0 0,-8z M170,186l8,0 0,8 -8,0 0,-8z M194,186l8,0 0,8 -8,0 0,-8z M202,186l8,0 0,8 -8,0 0,-8z M210,186l8,0 0,8 -8,0 0,-8z M218,186l8,0 0,8 -8,0 0,-8z M226,186l8,0 0,8 -8,0 0,-8z M234,186l8,0 0,8 -8,0 0,-8z M242,186l8,0 0,8 -8,0 0,-8z M266,186l8,0 0,8 -8,0 0,-8z M274,186l8,0 0,8 -8,0 0,-8z M290,186l8,0 0,8 -8,0 0,-8z M2,194l8,0 0,8 -8,0 0,-8z M18,194l8,0 0,8 -8,0 0,-8z M26,194l8,0 0,8 -8,0 0,-8z M50,194l8,0 0,8 -8,0 0,-8z M58,194l8,0 0,8 -8,0 0,-8z M82,194l8,0 0,8 -8,0 0,-8z M114,194l8,0 0,8 -8,0 0,-8z M154,194l8,0 0,8 -8,0 0,-8z M234,194l8,0 0,8 -8,0 0,-8z M242,194l8,0 0,8 -8,0 0,-8z M250,194l8,0 0,8 -8,0 0,-8z M258,194l8,0 0,8 -8,0 0,-8z M274,194l8,0 0,8 -8,0 0,-8z M290,194l8,0 0,8 -8,0 0,-8z M10,202l8,0 0,8 -8,0 0,-8z M18,202l8,0 0,8 -8,0 0,-8z M34,202l8,0 0,8 -8,0 0,-8z M42,202l8,0 0,8 -8,0 0,-8z M58,202l8,0 0,8 -8,0 0,-8z M66,202l8,0 0,8 -8,0 0,-8z M74,202l8,0 0,8 -8,0 0,-8z M98,202l8,0 0,8 -8,0 0,-8z M106,202l8,0 0,8 -8,0 0,-8z M114,202l8,0 0,8 -8,0 0,-8z M130,202l8,0 0,8 -8,0 0,-8z M138,202l8,0 0,8 -8,0 0,-8z M162,202l8,0 0,8 -8,0 0,-8z M178,202l8,0 0,8 -8,0 0,-8z M186,202l8,0 0,8 -8,0 0,-8z M210,202l8,0 0,8 -8,0 0,-8z M218,202l8,0 0,8 -8,0 0,-8z M226,202l8,0 0,8 -8,0 0,-8z M242,202l8,0 0,8 -8,0 0,-8z M250,202l8,0 0,8 -8,0 0,-8z M258,202l8,0 0,8 -8,0 0,-8z M266,202l8,0 0,8 -8,0 0,-8z M274,202l8,0 0,8 -8,0 0,-8z M282,202l8,0 0,8 -8,0 0,-8z M290,202l8,0 0,8 -8,0 0,-8z M10,210l8,0 0,8 -8,0 0,-8z M26,210l8,0 0,8 -8,0 0,-8z M34,210l8,0 0,8 -8,0 0,-8z M50,210l8,0 0,8 -8,0 0,-8z M58,210l8,0 0,8 -8,0 0,-8z M74,210l8,0 0,8 -8,0 0,-8z M82,210l8,0 0,8 -8,0 0,-8z M90,210l8,0 0,8 -8,0 0,-8z M98,210l8,0 0,8 -8,0 0,-8z M106,210l8,0 0,8 -8,0 0,-8z M122,210l8,0 0,8 -8,0 0,-8z M138,210l8,0 0,8 -8,0 0,-8z M162,210l8,0 0,8 -8,0 0,-8z M194,210l8,0 0,8 -8,0 0,-8z M226,210l8,0 0,8 -8,0 0,-8z M250,210l8,0 0,8 -8,0 0,-8z M258,210l8,0 0,8 -8,0 0,-8z M282,210l8,0 0,8 -8,0 0,-8z M2,218l8,0 0,8 -8,0 0,-8z M18,218l8,0 0,8 -8,0 0,-8z M34,218l8,0 0,8 -8,0 0,-8z M82,218l8,0 0,8 -8,0 0,-8z M98,218l8,0 0,8 -8,0 0,-8z M106,218l8,0 0,8 -8,0 0,-8z M122,218l8,0 0,8 -8,0 0,-8z M146,218l8,0 0,8 -8,0 0,-8z M154,218l8,0 0,8 -8,0 0,-8z M170,218l8,0 0,8 -8,0 0,-8z M178,218l8,0 0,8 -8,0 0,-8z M194,218l8,0 0,8 -8,0 0,-8z M210,218l8,0 0,8 -8,0 0,-8z M234,218l8,0 0,8 -8,0 0,-8z M250,218l8,0 0,8 -8,0 0,-8z M282,218l8,0 0,8 -8,0 0,-8z M290,218l8,0 0,8 -8,0 0,-8z M26,226l8,0 0,8 -8,0 0,-8z M50,226l8,0 0,8 -8,0 0,-8z M66,226l8,0 0,8 -8,0 0,-8z M82,226l8,0 0,8 -8,0 0,-8z M90,226l8,0 0,8 -8,0 0,-8z M106,226l8,0 0,8 -8,0 0,-8z M114,226l8,0 0,8 -8,0 0,-8z M122,226l8,0 0,8 -8,0 0,-8z M130,226l8,0 0,8 -8,0 0,-8z M138,226l8,0 0,8 -8,0 0,-8z M154,226l8,0 0,8 -8,0 0,-8z M170,226l8,0 0,8 -8,0 0,-8z M186,226l8,0 0,8 -8,0 0,-8z M194,226l8,0 0,8 -8,0 0,-8z M202,226l8,0 0,8 -8,0 0,-8z M210,226l8,0 0,8 -8,0 0,-8z M226,226l8,0 0,8 -8,0 0,-8z M234,226l8,0 0,8 -8,0 0,-8z M242,226l8,0 0,8 -8,0 0,-8z M250,226l8,0 0,8 -8,0 0,-8z M258,226l8,0 0,8 -8,0 0,-8z M274,226l8,0 0,8 -8,0 0,-8z M282,226l8,0 0,8 -8,0 0,-8z M290,226l8,0 0,8 -8,0 0,-8z M66,234l8,0 0,8 -8,0 0,-8z M74,234l8,0 0,8 -8,0 0,-8z M90,234l8,0 0,8 -8,0 0,-8z M106,234l8,0 0,8 -8,0 0,-8z M114,234l8,0 0,8 -8,0 0,-8z M122,234l8,0 0,8 -8,0 0,-8z M138,234l8,0 0,8 -8,0 0,-8z M146,234l8,0 0,8 -8,0 0,-8z M162,234l8,0 0,8 -8,0 0,-8z M186,234l8,0 0,8 -8,0 0,-8z M194,234l8,0 0,8 -8,0 0,-8z M210,234l8,0 0,8 -8,0 0,-8z M226,234l8,0 0,8 -8,0 0,-8z M258,234l8,0 0,8 -8,0 0,-8z M266,234l8,0 0,8 -8,0 0,-8z M274,234l8,0 0,8 -8,0 0,-8z M290,234l8,0 0,8 -8,0 0,-8z M2,242l8,0 0,8 -8,0 0,-8z M10,242l8,0 0,8 -8,0 0,-8z M18,242l8,0 0,8 -8,0 0,-8z M26,242l8,0 0,8 -8,0 0,-8z M34,242l8,0 0,8 -8,0 0,-8z M42,242l8,0 0,8 -8,0 0,-8z M50,242l8,0 0,8 -8,0 0,-8z M66,242l8,0 0,8 -8,0 0,-8z M90,242l8,0 0,8 -8,0 0,-8z M114,242l8,0 0,8 -8,0 0,-8z M122,242l8,0 0,8 -8,0 0,-8z M130,242l8,0 0,8 -8,0 0,-8z M138,242l8,0 0,8 -8,0 0,-8z M162,242l8,0 0,8 -8,0 0,-8z M202,242l8,0 0,8 -8,0 0,-8z M226,242l8,0 0,8 -8,0 0,-8z M242,242l8,0 0,8 -8,0 0,-8z M258,242l8,0 0,8 -8,0 0,-8z M266,242l8,0 0,8 -8,0 0,-8z M282,242l8,0 0,8 -8,0 0,-8z M290,242l8,0 0,8 -8,0 0,-8z M2,250l8,0 0,8 -8,0 0,-8z M50,250l8,0 0,8 -8,0 0,-8z M82,250l8,0 0,8 -8,0 0,-8z M90,250l8,0 0,8 -8,0 0,-8z M106,250l8,0 0,8 -8,0 0,-8z M114,250l8,0 0,8 -8,0 0,-8z M130,250l8,0 0,8 -8,0 0,-8z M162,250l8,0 0,8 -8,0 0,-8z M194,250l8,0 0,8 -8,0 0,-8z M210,250l8,0 0,8 -8,0 0,-8z M218,250l8,0 0,8 -8,0 0,-8z M226,250l8,0 0,8 -8,0 0,-8z M258,250l8,0 0,8 -8,0 0,-8z M266,250l8,0 0,8 -8,0 0,-8z M282,250l8,0 0,8 -8,0 0,-8z M2,258l8,0 0,8 -8,0 0,-8z M18,258l8,0 0,8 -8,0 0,-8z M26,258l8,0 0,8 -8,0 0,-8z M34,258l8,0 0,8 -8,0 0,-8z M50,258l8,0 0,8 -8,0 0,-8z M90,258l8,0 0,8 -8,0 0,-8z M106,258l8,0 0,8 -8,0 0,-8z M122,258l8,0 0,8 -8,0 0,-8z M130,258l8,0 0,8 -8,0 0,-8z M138,258l8,0 0,8 -8,0 0,-8z M146,258l8,0 0,8 -8,0 0,-8z M170,258l8,0 0,8 -8,0 0,-8z M178,258l8,0 0,8 -8,0 0,-8z M186,258l8,0 0,8 -8,0 0,-8z M210,258l8,0 0,8 -8,0 0,-8z M226,258l8,0 0,8 -8,0 0,-8z M234,258l8,0 0,8 -8,0 0,-8z M242,258l8,0 0,8 -8,0 0,-8z M250,258l8,0 0,8 -8,0 0,-8z M258,258l8,0 0,8 -8,0 0,-8z M266,258l8,0 0,8 -8,0 0,-8z M2,266l8,0 0,8 -8,0 0,-8z M18,266l8,0 0,8 -8,0 0,-8z M26,266l8,0 0,8 -8,0 0,-8z M34,266l8,0 0,8 -8,0 0,-8z M50,266l8,0 0,8 -8,0 0,-8z M66,266l8,0 0,8 -8,0 0,-8z M74,266l8,0 0,8 -8,0 0,-8z M82,266l8,0 0,8 -8,0 0,-8z M138,266l8,0 0,8 -8,0 0,-8z M154,266l8,0 0,8 -8,0 0,-8z M162,266l8,0 0,8 -8,0 0,-8z M178,266l8,0 0,8 -8,0 0,-8z M242,266l8,0 0,8 -8,0 0,-8z M258,266l8,0 0,8 -8,0 0,-8z M266,266l8,0 0,8 -8,0 0,-8z M2,274l8,0 0,8 -8,0 0,-8z M18,274l8,0 0,8 -8,0 0,-8z M26,274l8,0 0,8 -8,0 0,-8z M34,274l8,0 0,8 -8,0 0,-8z M50,274l8,0 0,8 -8,0 0,-8z M66,274l8,0 0,8 -8,0 0,-8z M74,274l8,0 0,8 -8,0 0,-8z M82,274l8,0 0,8 -8,0 0,-8z M90,274l8,0 0,8 -8,0 0,-8z M106,274l8,0 0,8 -8,0 0,-8z M122,274l8,0 0,8 -8,0 0,-8z M138,274l8,0 0,8 -8,0 0,-8z M154,274l8,0 0,8 -8,0 0,-8z M226,274l8,0 0,8 -8,0 0,-8z M242,274l8,0 0,8 -8,0 0,-8z M258,274l8,0 0,8 -8,0 0,-8z M266,274l8,0 0,8 -8,0 0,-8z M274,274l8,0 0,8 -8,0 0,-8z M282,274l8,0 0,8 -8,0 0,-8z M2,282l8,0 0,8 -8,0 0,-8z M50,282l8,0 0,8 -8,0 0,-8z M74,282l8,0 0,8 -8,0 0,-8z M98,282l8,0 0,8 -8,0 0,-8z M106,282l8,0 0,8 -8,0 0,-8z M122,282l8,0 0,8 -8,0 0,-8z M130,282l8,0 0,8 -8,0 0,-8z M154,282l8,0 0,8 -8,0 0,-8z M170,282l8,0 0,8 -8,0 0,-8z M178,282l8,0 0,8 -8,0 0,-8z M186,282l8,0 0,8 -8,0 0,-8z M194,282l8,0 0,8 -8,0 0,-8z M202,282l8,0 0,8 -8,0 0,-8z M234,282l8,0 0,8 -8,0 0,-8z M266,282l8,0 0,8 -8,0 0,-8z M274,282l8,0 0,8 -8,0 0,-8z M2,290l8,0 0,8 -8,0 0,-8z M10,290l8,0 0,8 -8,0 0,-8z M18,290l8,0 0,8 -8,0 0,-8z M26,290l8,0 0,8 -8,0 0,-8z M34,290l8,0 0,8 -8,0 0,-8z M42,290l8,0 0,8 -8,0 0,-8z M50,290l8,0 0,8 -8,0 0,-8z M74,290l8,0 0,8 -8,0 0,-8z M90,290l8,0 0,8 -8,0 0,-8z M114,290l8,0 0,8 -8,0 0,-8z M130,290l8,0 0,8 -8,0 0,-8z M146,290l8,0 0,8 -8,0 0,-8z M154,290l8,0 0,8 -8,0 0,-8z M162,290l8,0 0,8 -8,0 0,-8z M186,290l8,0 0,8 -8,0 0,-8z M194,290l8,0 0,8 -8,0 0,-8z M202,290l8,0 0,8 -8,0 0,-8z M210,290l8,0 0,8 -8,0 0,-8z M242,290l8,0 0,8 -8,0 0,-8z M258,290l8,0 0,8 -8,0 0,-8z M274,290l8,0 0,8 -8,0 0,-8z M282,290l8,0 0,8 -8,0 0,-8z M290,290l8,0 0,8 -8,0 0,-8z " stroke="transparent" fill="black"/></svg>